HIERARCHY
ROOT hip
{
  OFFSET 0 0 0
  CHANNELS 6 Xposition Yposition Zposition Zrotation Yrotation Xrotation
  JOINT abdomen
  {
    OFFSET 0 20.6881 -0.73152
    CHANNELS 3 Zrotation Xrotation Yrotation
    JOINT chest
    {
      OFFSET 0 11.7043 -0.48768
      CHANNELS 3 Zrotation Xrotation Yrotation
      JOINT neck
      {
        OFFSET 0 22.1894 -2.19456
        CHANNELS 3 Zrotation Xrotation Yrotation
        JOINT head
        {
          OFFSET -0.24384 7.07133 1.2192
          CHANNELS 3 Zrotation Xrotation Yrotation
          JOINT leftEye
          {
            OFFSET 4.14528 8.04674 8.04672
            CHANNELS 3 Zrotation Xrotation Yrotation
            End Site
            {
              OFFSET 1 0 0
            }
          }
          JOINT rightEye
          {
            OFFSET -3.6576 8.04674 8.04672
            CHANNELS 3 Zrotation Xrotation Yrotation
            End Site
            {
              OFFSET 1 0 0
            }
          }
        }
      }
      JOINT rCollar
      {
        OFFSET -2.68224 19.2634 -4.8768
        CHANNELS 3 Zrotation Xrotation Yrotation
        JOINT rShldr
        {
          OFFSET -8.77824 -1.95073 1.46304
          CHANNELS 3 Zrotation Xrotation Yrotation
          JOINT rForeArm
          {
            OFFSET -28.1742 -1.7115 0.48768
            CHANNELS 3 Zrotation Xrotation Yrotation
            JOINT rHand
            {
              OFFSET -22.5879 0.773209 7.07136
              CHANNELS 3 Zrotation Xrotation Yrotation
              JOINT rThumb1
              {
                OFFSET -1.2192 -0.487915 3.41376
                CHANNELS 3 Zrotation Xrotation Yrotation
                JOINT rThumb2
                {
                  OFFSET -3.37035 -0.52449 3.41376
                  CHANNELS 3 Zrotation Xrotation Yrotation
                  End Site
                  {
                    OFFSET -1.78271 -1.18214 1.43049
                  }
                }
              }
              JOINT rIndex1
              {
                OFFSET -7.75947 0.938293 5.60832
                CHANNELS 3 Zrotation Xrotation Yrotation
                JOINT rIndex2
                {
                  OFFSET -2.54057 -0.884171 1.56538
                  CHANNELS 3 Zrotation Xrotation Yrotation
                  End Site
                  {
                    OFFSET -1.62519 -0.234802 1.16502
                  }
                }
              }
              JOINT rMid1
              {
                OFFSET -8.24714 1.18213 3.41376
                CHANNELS 3 Zrotation Xrotation Yrotation
                JOINT rMid2
                {
                  OFFSET -3.10165 -0.590103 1.0647
                  CHANNELS 3 Zrotation Xrotation Yrotation
                  End Site
                  {
                    OFFSET -2.48547 -0.328903 0.83742
                  }
                }
              }
              JOINT rRing1
              {
                OFFSET -8.82822 0.546677 1.51678
                CHANNELS 3 Zrotation Xrotation Yrotation
                JOINT rRing2
                {
                  OFFSET -2.60934 -0.819778 -0.0198488
                  CHANNELS 3 Zrotation Xrotation Yrotation
                  End Site
                  {
                    OFFSET -2.33842 -0.294052 0.168128
                  }
                }
              }
              JOINT rPinky1
              {
                OFFSET -8.27202 -0.0477905 -0.4584
                CHANNELS 3 Zrotation Xrotation Yrotation
                JOINT rPinky2
                {
                  OFFSET -1.82734 -0.647385 -0.700984
                  CHANNELS 3 Zrotation Xrotation Yrotation
                  End Site
                  {
                    OFFSET -1.69225 -0.51767 -0.607171
                  }
                }
              }
            }
          }
        }
      }
      JOINT lCollar
      {
        OFFSET 2.68224 19.2634 -4.8768
        CHANNELS 3 Zrotation Xrotation Yrotation
        JOINT lShldr
        {
          OFFSET 8.77824 -1.95073 1.46304
          CHANNELS 3 Zrotation Xrotation Yrotation
          JOINT lForeArm
          {
            OFFSET 28.1742 -1.7115 0.48768
            CHANNELS 3 Zrotation Xrotation Yrotation
            JOINT lHand
            {
              OFFSET 22.5879 0.773209 7.07136
              CHANNELS 3 Zrotation Xrotation Yrotation
              JOINT lThumb1
              {
                OFFSET 1.2192 -0.487915 3.41376
                CHANNELS 3 Zrotation Xrotation Yrotation
                JOINT lThumb2
                {
                  OFFSET 3.37035 -0.52449 3.41376
                  CHANNELS 3 Zrotation Xrotation Yrotation
                  End Site
                  {
                    OFFSET 1.78271 -1.18214 1.43049
                  }
                }
              }
              JOINT lIndex1
              {
                OFFSET 7.75947 0.938293 5.60832
                CHANNELS 3 Zrotation Xrotation Yrotation
                JOINT lIndex2
                {
                  OFFSET 2.54057 -0.884171 1.56538
                  CHANNELS 3 Zrotation Xrotation Yrotation
                  End Site
                  {
                    OFFSET 1.62519 -0.234802 1.16502
                  }
                }
              }
              JOINT lMid1
              {
                OFFSET 8.24714 1.18213 3.41376
                CHANNELS 3 Zrotation Xrotation Yrotation
                JOINT lMid2
                {
                  OFFSET 3.10165 -0.590103 1.0647
                  CHANNELS 3 Zrotation Xrotation Yrotation
                  End Site
                  {
                    OFFSET 2.48547 -0.328903 0.83742
                  }
                }
              }
              JOINT lRing1
              {
                OFFSET 8.82822 0.546677 1.51678
                CHANNELS 3 Zrotation Xrotation Yrotation
                JOINT lRing2
                {
                  OFFSET 2.60934 -0.819778 -0.0198488
                  CHANNELS 3 Zrotation Xrotation Yrotation
                  End Site
                  {
                    OFFSET 2.33842 -0.294052 0.168128
                  }
                }
              }
              JOINT lPinky1
              {
                OFFSET 8.27202 -0.0477905 -0.4584
                CHANNELS 3 Zrotation Xrotation Yrotation
                JOINT lPinky2
                {
                  OFFSET 1.82734 -0.647385 -0.700984
                  CHANNELS 3 Zrotation Xrotation Yrotation
                  End Site
                  {
                    OFFSET 1.69225 -0.51767 -0.607171
                  }
                }
              }
            }
          }
        }
      }
    }
  }
  JOINT rButtock
  {
    OFFSET -8.77824 4.35084 1.2192
    CHANNELS 3 Zrotation Xrotation Yrotation
    JOINT rThigh
    {
      OFFSET 0 -1.70687 -2.19456
      CHANNELS 3 Zrotation Xrotation Yrotation
      JOINT rShin
      {
        OFFSET 0 -36.8199 0.73152
        CHANNELS 3 Zrotation Xrotation Yrotation
        JOINT rFoot
        {
          OFFSET 0.73152 -45.1104 -5.12064
          CHANNELS 3 Zrotation Xrotation Yrotation
          End Site
          {
            OFFSET -1.1221 -3.69964 12.103
          }
        }
      }
    }
  }
  JOINT lButtock
  {
    OFFSET 8.77824 4.35084 1.2192
    CHANNELS 3 Zrotation Xrotation Yrotation
    JOINT lThigh
    {
      OFFSET 0 -1.70687 -2.19456
      CHANNELS 3 Zrotation Xrotation Yrotation
      JOINT lShin
      {
        OFFSET 0 -36.8199 0.73152
        CHANNELS 3 Zrotation Xrotation Yrotation
        JOINT lFoot
        {
          OFFSET -0.73152 -45.1104 -5.12064
          CHANNELS 3 Zrotation Xrotation Yrotation
          End Site
          {
            OFFSET 1.1221 -3.69964 12.103
          }
        }
      }
    }
  }
}
MOTION
Frames:	5
Frame Time:	0.00833333
35.4232 81.9026 -36.1978 1.2063 -61.4273 8.5703 4.20293 11.22 3.3088 2.21846 -3.21154 1.08875 -3.2218 1.26145 4.91209 -4.74492 -18.1345 9.87009 -0.0 0.0 0.0 -0.0 0.0 0.0 -4.06668e-13 -5.61432e-13 1.31372e-12 57.9226 44.6082 24.7196 -28.2721 -32.6496 71.527 -2.00305 -36.7528 -6.02472 -2.46945e-10 3.55132e-09 1.75533e-09 -4.83366e-10 6.09325e-09 3.01817e-09 -2.46945e-10 3.55133e-09 1.75533e-09 7.73091 5.47488 0.417314 -2.46945e-10 3.55132e-09 1.75533e-09 2.90554 0.965183 0.102902 -2.46934e-10 3.55132e-09 1.75533e-09 10.2786 0.731801 0.0259123 -2.46948e-10 3.55133e-09 1.75534e-09 2.22167 -0.733487 -0.20892 -4.06885e-13 -5.61404e-13 1.31347e-12 -38.6809 52.6391 -62.114 26.7535 -25.5472 -60.1578 3.67464 -46.5461 8.53062 -4.87138e-10 4.60489e-10 -1.60286e-09 -7.88241e-10 9.07657e-10 -2.79371e-09 -4.87137e-10 4.60489e-10 -1.60283e-09 -7.73091 5.47488 -0.417314 -4.87139e-10 4.60488e-10 -1.60286e-09 -2.90554 0.965183 -0.102902 -4.87141e-10 4.60489e-10 -1.60286e-09 -10.2786 0.731801 -0.0259123 -4.87131e-10 4.6049e-10 -1.60287e-09 -2.22167 -0.733487 0.20892 -2.03217e-16 0.0 -3.88251e-19 -0.347017 -26.8416 -3.0883 -0.217548 30.1301 0.455674 -3.4531 -11.3686 -10.6022 2.03217e-16 0.0 3.88251e-19 5.6062 -28.5759 -1.55178 -0.00908616 21.0239 -0.235503 0.386293 1.55849 1.60162
35.3887 81.9151 -36.228 1.393 -61.6496 8.408 4.24588 11.2169 3.26002 2.18812 -3.16917 1.07375 -3.12356 1.23145 5.01873 -4.98518 -17.992 10.0251 -0.0 0.0 0.0 -0.0 0.0 0.0 -3.4971e-13 -5.00018e-13 1.38489e-12 57.9894 44.5538 24.6717 -28.2707 -32.6385 71.5112 -2.0075 -36.7866 -6.03217 -8.93456e-10 2.09996e-09 1.01785e-09 -1.57602e-09 3.55248e-09 1.72625e-09 -8.93456e-10 2.09997e-09 1.01785e-09 7.73091 5.47488 0.417314 -8.93456e-10 2.09996e-09 1.01785e-09 2.90554 0.965183 0.102902 -8.93446e-10 2.09996e-09 1.01785e-09 10.2786 0.731801 0.0259123 -8.93458e-10 2.09997e-09 1.01786e-09 2.22167 -0.733487 -0.20892 -3.49878e-13 -4.99997e-13 1.38463e-12 -38.454 52.7114 -62.3754 26.7413 -25.5096 -60.0978 3.65099 -46.437 8.49796 1.76679e-10 3.66818e-10 -9.08005e-10 3.29421e-10 7.43715e-10 -1.57332e-09 1.7668e-10 3.6682e-10 -9.07983e-10 -7.73091 5.47488 -0.417314 1.76679e-10 3.66818e-10 -9.08011e-10 -2.90554 0.965183 -0.102902 1.76675e-10 3.66818e-10 -9.08011e-10 -10.2786 0.731801 -0.0259123 1.76685e-10 3.6682e-10 -9.08018e-10 -2.22167 -0.733487 0.20892 -2.03217e-16 0.0 -3.88251e-19 -0.368344 -26.8568 -2.95888 -0.217577 30.131 0.45565 -3.42688 -11.3616 -10.5166 2.03217e-16 0.0 3.88251e-19 5.53588 -28.5026 -1.51479 -0.00876859 20.9718 -0.233954 0.374882 1.94057 1.8476
35.3542 81.9264 -36.2555 1.5962 -61.8514 8.234 4.27884 11.2052 3.20806 2.15922 -3.1238 1.05759 -3.01892 1.20013 5.12518 -5.22671 -17.852 10.1786 -0.0 0.0 0.0 -0.0 0.0 0.0 -2.29388e-13 -3.46186e-13 1.32724e-12 58.0499 44.5039 24.6346 -28.2692 -32.6272 71.495 -2.01216 -36.8219 -6.03994 -1.66335e-09 1.85131e-11 -4.95239e-11 -2.87085e-09 -8.00817e-11 -1.38626e-10 -1.66335e-09 1.85216e-11 -4.95279e-11 7.73091 5.47488 0.417314 -1.66335e-09 1.85121e-11 -4.9522e-11 2.90554 0.965183 0.102902 -1.66334e-09 1.85173e-11 -4.95233e-11 10.2786 0.731801 0.0259123 -1.66335e-09 1.85196e-11 -4.95168e-11 2.22167 -0.733487 -0.20892 -2.29475e-13 -3.46181e-13 1.32699e-12 -38.2487 52.7825 -62.6102 26.7296 -25.4736 -60.0402 3.62964 -46.338 8.46843 1.09891e-09 1.81675e-10 1.02683e-10 1.88163e-09 4.09793e-10 2.01879e-10 1.09891e-09 1.81678e-10 1.027e-10 -7.73091 5.47488 -0.417314 1.09891e-09 1.81675e-10 1.0268e-10 -2.90554 0.965183 -0.102902 1.0989e-09 1.81676e-10 1.02678e-10 -10.2786 0.731801 -0.0259123 1.09891e-09 1.81677e-10 1.02672e-10 -2.22167 -0.733487 0.20892 -2.03217e-16 0.0 -3.88251e-19 -0.400613 -26.8724 -2.83848 -0.217194 30.1374 0.456124 -3.40168 -11.3605 -10.433 2.03217e-16 0.0 3.88251e-19 5.4665 -28.433 -1.43363 -0.00838092 20.907 -0.232124 0.362075 2.26721 2.09546
35.3173 81.9371 -36.2798 1.8137 -62.0374 8.0457 4.30863 11.1885 3.15012 2.13059 -3.079 1.03968 -2.91864 1.17408 5.22829 -5.45409 -17.7257 10.3283 -0.0 0.0 0.0 -0.0 0.0 0.0 -1.0122e-13 -1.79097e-13 1.19446e-12 58.111 44.4576 24.5979 -28.2679 -32.6176 71.4813 -2.0166 -36.8555 -6.04735 -2.28473e-09 -1.90598e-09 -1.0355e-09 -3.91182e-09 -3.4324e-09 -1.85841e-09 -2.28473e-09 -1.90597e-09 -1.0355e-09 7.73091 5.47488 0.417314 -2.28473e-09 -1.90598e-09 -1.0355e-09 2.90554 0.965183 0.102902 -2.28472e-09 -1.90597e-09 -1.0355e-09 10.2786 0.731801 0.0259123 -2.28473e-09 -1.90597e-09 -1.03549e-09 2.22167 -0.733487 -0.20892 -1.01223e-13 -1.7911e-13 1.1942e-12 -38.073 52.8504 -62.813 26.7187 -25.4403 -59.9868 3.61863 -46.2869 8.45321 1.90315e-09 -9.23671e-13 1.01783e-09 3.2346e-09 7.65658e-11 1.80887e-09 1.90314e-09 -9.20063e-13 1.01783e-09 -7.73091 5.47488 -0.417314 1.90315e-09 -9.23293e-13 1.01782e-09 -2.90554 0.965183 -0.102902 1.90313e-09 -9.22859e-13 1.01782e-09 -10.2786 0.731801 -0.0259123 1.90315e-09 -9.22137e-13 1.01782e-09 -2.22167 -0.733487 0.20892 -2.03217e-16 0.0 -3.88251e-19 -0.439432 -26.8858 -2.7282 -0.216678 30.1475 0.456831 -3.37942 -11.364 -10.3575 2.03217e-16 0.0 3.88251e-19 5.39495 -28.3695 -1.34551 -0.00799579 20.8459 -0.230343 0.3486 2.54855 2.32515
35.2793 81.9472 -36.3009 2.04 -62.1999 7.8482 4.34208 11.1701 3.08342 2.10105 -3.03837 1.01943 -2.8335 1.15987 5.32489 -5.65175 -17.6244 10.4723 -0.0 0.0 0.0 -0.0 0.0 0.0 -2.07249e-14 -7.79123e-14 1.04019e-12 58.179 44.4137 24.5512 -28.2672 -32.6118 71.4731 -2.02041 -36.8842 -6.05369 -2.48568e-09 -2.88648e-09 -1.52877e-09 -4.24291e-09 -5.13245e-09 -2.71508e-09 -2.48568e-09 -2.88647e-09 -1.52878e-09 7.73091 5.47488 0.417314 -2.48568e-09 -2.88648e-09 -1.52878e-09 2.90554 0.965183 0.102902 -2.48567e-09 -2.88647e-09 -1.52878e-09 10.2786 0.731801 0.0259123 -2.48568e-09 -2.88647e-09 -1.52877e-09 2.22167 -0.733487 -0.20892 -2.06733e-14 -7.79341e-14 1.03994e-12 -37.9349 52.9131 -62.9787 26.709 -25.4106 -59.9394 3.62598 -46.3216 8.46346 2.213e-09 -8.69612e-11 1.42604e-09 3.75456e-09 -8.52898e-11 2.52463e-09 2.21299e-09 -8.69572e-11 1.42604e-09 -7.73091 5.47488 -0.417314 2.213e-09 -8.69607e-11 1.42604e-09 -2.90554 0.965183 -0.102902 2.21298e-09 -8.69604e-11 1.42604e-09 -10.2786 0.731801 -0.0259123 2.213e-09 -8.69595e-11 1.42603e-09 -2.22167 -0.733487 0.20892 -2.03217e-16 0.0 -3.88251e-19 -0.480431 -26.8946 -2.62913 -0.216314 30.1598 0.45751 -3.36202 -11.3707 -10.2961 2.03217e-16 0.0 3.88251e-19 5.31832 -28.3144 -1.28751 -0.00768944 20.8049 -0.228945 0.335359 2.79475 2.51662
